<svg xmlns="http://www.w3.org/2000/svg" viewBox="0 0 800 640" width="800" height="640">
  <!-- 02 Five questions: his answers are the brief. One question mark, its point a drop of the mark's water, falling into the mark's waves -->
  <style>
    .n { stroke: #0d2a4d; stroke-width: 7; stroke-linejoin: round; stroke-linecap: round; }
    .m { stroke: #0d2a4d; stroke-width: 5; stroke-linejoin: round; stroke-linecap: round; }
    .m:not([fill]), .n:not([fill]) { fill: none; }
  </style>
  <defs>
    <filter id="soft" x="-30%" y="-80%" width="160%" height="260%"><feGaussianBlur stdDeviation="12" /></filter>
    <clipPath id="disc"><circle cx="400" cy="310" r="214" /></clipPath>
    <path id="spark" d="M0 -16 Q3 -3 16 0 Q3 3 0 16 Q-3 3 -16 0 Q-3 -3 0 -16 Z" />
    <!-- the mark's drone -->
    <g id="drone">
      <rect x="-150" y="-6" width="300" height="12" rx="6" fill="#fff" class="m" />
      <path d="M-150 0 v18 M150 0 v18" class="m" />
      <path d="M-182 -22 h64 M118 -22 h64" class="n" style="stroke-width:9" />
      <path d="M-130 -22 v16 M130 -22 v16" class="m" />
      <rect x="-50" y="-26" width="100" height="44" rx="12" fill="#fff" class="m" />
      <rect x="-26" y="18" width="52" height="22" rx="6" fill="#fff" class="m" />
      <rect x="26" y="28" width="16" height="10" rx="2" fill="#fff" class="m" />
      <path d="M54 30 l22 -6 M56 38 h24 M54 46 l22 6" class="m" />
    </g>
  </defs>

  <!-- the ring every chapter is drawn in: the mark's circle, and its arc -->
  <ellipse cx="400" cy="548" rx="190" ry="14" fill="#245f9e" opacity="0.26" filter="url(#soft)" />
  <circle cx="400" cy="310" r="214" fill="#fff" />
  <g clip-path="url(#disc)">
    <path d="M186 430 C 250 410, 290 456, 350 442 C 410 428, 440 398, 500 410 C 550 420, 580 442, 614 432 V524 H186 Z" fill="#0296ea" />
    <path d="M412 524 C 424 482, 452 456, 480 442 C 466 476, 468 502, 482 524 Z" fill="#fff" />
    <path d="M186 430 C 250 410, 290 456, 350 442 C 410 428, 440 398, 500 410 C 550 420, 580 442, 614 432" class="m" />
    <path d="M322 214 C 322 140, 478 132, 478 214 C 478 268, 400 266, 400 326 V346" stroke="#0d2a4d" style="stroke-width:44" stroke-linecap="round" stroke-linejoin="round" fill="none" />
    <path d="M322 214 C 322 140, 478 132, 478 214 C 478 268, 400 266, 400 326 V346" stroke="#0296ea" style="stroke-width:28" stroke-linecap="round" stroke-linejoin="round" fill="none" />
    <path d="M340 196 C 350 168, 380 160, 404 160" stroke="#fff" style="stroke-width:7" stroke-linecap="round" fill="none" opacity="0.9" />
    <path d="M400 372 c0 0 -26 30 -26 48 a26 26 0 0 0 52 0 c0 -18 -26 -48 -26 -48 z" fill="#0296ea" class="n" />
    <path d="M388 414 q-2 12 6 18" stroke="#fff" style="stroke-width:5" stroke-linecap="round" fill="none" />
    <path d="M330 470 q20 -12 36 0 M434 470 q20 -12 36 0" stroke="#fff" style="stroke-width:6" stroke-linecap="round" fill="none" opacity="0.8" />
  </g>
  <circle cx="400" cy="310" r="214" class="n" style="stroke-width:8" />
  <path d="M510.8 101.6 A236 236 0 0 1 367.2 543.7" class="m" />
</svg>
