<svg width="86" height="86" viewBox="0 0 86 86" fill="none" xmlns="http://www.w3.org/2000/svg">
<path id="&#244;&#128;&#138;&#149;" d="M42.9479 85.8957C37.025 85.8957 31.4671 84.7728 26.274 82.5272C21.081 80.3096 16.5195 77.2359 12.5897 73.306C8.65981 69.3762 5.57206 64.8147 3.32642 59.6217C1.10885 54.4286 6.25476e-05 48.8707 6.25476e-05 42.9478C6.25476e-05 37.0249 1.10885 31.467 3.32642 26.2739C5.57206 21.0809 8.65981 16.5194 12.5897 12.5896C16.5195 8.63162 21.081 5.54386 26.274 3.3263C31.4671 1.10873 37.025 -5.76824e-05 42.9479 -5.76824e-05C48.8708 -5.76824e-05 54.4288 1.10873 59.6218 3.3263C64.8148 5.54386 69.3763 8.63162 73.3062 12.5896C77.236 16.5194 80.3097 21.0809 82.5273 26.2739C84.773 31.467 85.8958 37.0249 85.8958 42.9478C85.8958 48.8707 84.773 54.4286 82.5273 59.6217C80.3097 64.8147 77.236 69.3762 73.3062 73.306C69.3763 77.2359 64.8148 80.3096 59.6218 82.5272C54.4288 84.7728 48.8708 85.8957 42.9479 85.8957ZM42.9479 78.7377C47.8883 78.7377 52.52 77.8114 56.8428 75.9587C61.1657 74.106 64.9692 71.5376 68.2535 68.2533C71.5377 64.9691 74.1062 61.1655 75.9588 56.8427C77.8115 52.5198 78.7378 47.8882 78.7378 42.9478C78.7378 38.0074 77.8115 33.3758 75.9588 29.0529C74.1062 24.702 71.5377 20.8984 68.2535 17.6422C64.9692 14.358 61.1657 11.7896 56.8428 9.9369C52.52 8.08424 47.8883 7.15792 42.9479 7.15792C38.0075 7.15792 33.3759 8.08424 29.053 9.9369C24.7302 11.7896 20.9266 14.358 17.6424 17.6422C14.3581 20.8984 11.7897 24.702 9.93702 29.0529C8.08436 33.3758 7.15804 38.0074 7.15804 42.9478C7.15804 47.8882 8.08436 52.5198 9.93702 56.8427C11.7897 61.1655 14.3581 64.9691 17.6424 68.2533C20.9266 71.5376 24.7302 74.106 29.053 75.9587C33.3759 77.8114 38.0075 78.7377 42.9479 78.7377ZM35.0741 59.4111C34.4285 59.8041 33.7829 59.9726 33.1373 59.9164C32.4917 59.8603 31.9443 59.6357 31.4952 59.2427C31.0741 58.8217 30.8636 58.2743 30.8636 57.6006V28.3371C30.8636 27.6634 31.0881 27.1301 31.5373 26.7371C31.9864 26.3441 32.5338 26.1336 33.1794 26.1055C33.8531 26.0494 34.4847 26.1897 35.0741 26.5266L59.0744 40.7583C59.6358 41.0951 60.0148 41.5583 60.2113 42.1478C60.4078 42.7092 60.4078 43.2846 60.2113 43.8741C60.0429 44.4355 59.6639 44.8987 59.0744 45.2636L35.0741 59.4111Z" fill="#494949" fill-opacity="0.92"/>
</svg>
